
<svg width="50px" height="50px" viewBox="0 0 50 50" version="1.1" xmlns="http://www.w3.org/2000/svg">
<path fill="#b08d47" opacity="0.71" d=" M 20.94 0.00 L 28.88 0.00 C 39.43 1.79 48.09 10.39 50.00 20.91 L 50.00 28.89 C 48.25 39.47 39.57 48.06 29.08 50.00 L 21.08 50.00 C 8.33 47.88 -1.82 35.45 0.00 22.34 L 0.00 20.70 C 0.32 20.95 0.96 21.44 1.28 21.69 C -0.41 32.99 7.21 44.78 18.23 47.83 C 26.61 50.67 36.37 47.75 42.30 41.31 C 46.33 37.26 48.48 31.64 48.93 26.01 C 49.41 15.15 41.62 4.54 31.02 1.96 C 18.43 -1.92 3.20 7.49 1.92 20.76 C 1.46 20.04 1.00 19.31 0.54 18.59 C 3.17 9.11 11.31 1.82 20.94 0.00 Z" />
<path fill="#b08d47" opacity="0.71" d=" M 20.81 16.82 C 24.62 18.10 26.93 21.92 29.95 24.44 C 29.95 24.72 29.95 25.28 29.95 25.56 C 26.93 28.07 24.62 31.91 20.80 33.18 C 22.08 29.65 25.88 27.84 28.12 24.93 C 25.77 22.18 22.06 20.31 20.81 16.82 Z" />
</svg>
