
<svg width="50px" height="50px" viewBox="0 0 50 50" version="1.1" xmlns="http://www.w3.org/2000/svg">
<path fill="#b08d47" opacity="0.71" d=" M 20.75 0.00 L 28.96 0.00 C 39.42 1.84 47.95 10.31 50.00 20.72 L 50.00 28.99 C 48.19 39.47 39.64 47.92 29.27 50.00 L 21.00 50.00 C 9.01 47.90 -1.01 36.66 0.00 24.22 L 0.00 20.71 C 0.29 20.95 0.86 21.43 1.15 21.67 C -0.14 32.47 6.43 43.74 16.79 47.36 C 25.04 50.70 34.98 48.43 41.32 42.30 C 47.51 36.56 50.50 27.25 48.07 19.08 C 45.98 10.56 38.73 3.56 30.15 1.73 C 17.73 -1.51 3.26 7.77 1.89 20.72 C 1.43 20.00 0.98 19.28 0.52 18.55 C 3.19 9.15 11.21 1.95 20.75 0.00 Z" />
<path fill="#b08d47" opacity="0.71" d=" M 21.05 24.47 C 24.03 21.80 26.48 18.16 30.32 16.69 C 28.89 20.23 25.32 22.19 22.87 24.95 C 25.25 27.82 28.89 29.74 30.32 33.30 C 26.48 31.85 24.04 28.20 21.05 25.53 C 21.05 25.27 21.05 24.74 21.05 24.47 Z" />
</svg>
