
<svg width="50px" height="51px" viewBox="0 0 50 51" version="1.1" xmlns="http://www.w3.org/2000/svg">
<path fill="#f9c765" opacity="1.00" d=" M 10.60 5.53 C 10.95 3.58 10.04 -0.54 13.35 0.22 C 14.90 1.50 14.15 3.82 14.53 5.57 C 21.51 5.55 28.49 5.56 35.47 5.57 C 35.73 3.68 35.24 1.42 36.86 0.01 C 40.03 0.00 39.01 3.43 39.39 5.53 C 41.84 5.61 44.38 5.29 46.75 6.05 C 48.76 6.82 49.52 8.98 50.00 10.89 L 50.00 43.50 C 50.45 47.17 48.22 50.85 44.30 51.00 L 7.38 51.00 C 3.70 51.47 0.18 49.13 0.00 45.29 L 0.00 13.12 C 0.20 10.94 0.08 8.27 2.05 6.80 C 4.47 4.93 7.77 5.73 10.60 5.53 M 3.78 9.70 C 3.77 12.55 3.75 15.40 3.75 18.25 C 17.91 18.25 32.08 18.25 46.24 18.25 C 46.24 15.51 46.41 12.76 46.07 10.04 C 44.17 8.60 41.54 9.46 39.33 9.23 C 39.45 11.67 39.47 15.72 35.81 14.48 C 35.72 12.73 35.65 10.99 35.56 9.24 C 28.52 9.26 21.48 9.25 14.44 9.24 C 14.35 10.98 14.28 12.73 14.19 14.47 C 10.52 15.71 10.56 11.67 10.67 9.22 C 8.37 9.20 6.05 9.21 3.78 9.70 M 3.75 21.94 C 3.80 29.64 3.67 37.35 3.79 45.05 C 3.45 47.02 5.50 47.29 6.95 47.19 C 18.31 47.20 29.68 47.15 41.04 47.21 C 42.62 47.14 44.29 47.40 45.77 46.74 C 46.49 45.28 46.18 43.60 46.28 42.03 C 46.22 35.34 46.26 28.64 46.25 21.94 C 32.08 21.94 17.92 21.94 3.75 21.94 Z" />
<path fill="#f9c765" opacity="1.00" d=" M 10.40 25.57 C 12.01 25.26 13.71 25.30 15.31 25.71 C 17.01 26.73 15.98 29.49 14.02 29.13 C 11.99 29.46 7.97 29.37 9.22 26.25 C 9.52 26.08 10.10 25.74 10.40 25.57 Z" />
<path fill="#f9c765" opacity="1.00" d=" M 23.33 25.48 C 25.20 25.40 27.65 24.89 28.72 26.90 C 28.65 29.93 24.98 29.18 22.93 29.01 C 20.64 29.11 21.13 25.11 23.33 25.48 Z" />
<path fill="#f9c765" opacity="1.00" d=" M 35.35 25.55 C 37.14 25.47 40.33 24.64 40.93 27.00 C 40.80 27.54 40.54 28.63 40.41 29.17 C 38.59 29.13 36.75 29.20 34.93 29.00 C 33.29 28.42 33.57 25.62 35.35 25.55 Z" />
<path fill="#f9c765" opacity="1.00" d=" M 9.49 33.37 C 11.35 32.27 16.06 31.75 16.23 34.85 C 15.23 37.74 7.12 36.94 9.49 33.37 Z" />
<path fill="#f9c765" opacity="1.00" d=" M 21.61 36.23 C 19.64 31.17 30.38 31.18 28.38 36.24 C 26.12 36.36 23.86 36.36 21.61 36.23 Z" />
<path fill="#f9c765" opacity="1.00" d=" M 34.29 33.18 C 36.02 32.38 38.03 32.58 39.86 32.86 C 41.81 33.50 41.14 36.60 39.06 36.36 C 36.91 36.85 32.37 36.39 34.29 33.18 Z" />
<path fill="#f9c765" opacity="1.00" d=" M 8.99 41.03 C 10.57 39.20 13.30 40.23 15.41 39.84 C 15.92 41.01 16.73 43.34 14.70 43.52 C 12.63 43.79 8.48 44.33 8.99 41.03 Z" />
<path fill="#f9c765" opacity="1.00" d=" M 21.96 40.29 C 23.94 39.75 26.07 39.72 28.05 40.31 C 31.22 45.01 18.77 45.07 21.96 40.29 Z" />
<path fill="#f9c765" opacity="1.00" d=" M 35.30 43.52 C 33.27 43.35 34.09 41.01 34.58 39.84 C 36.68 40.24 39.47 39.16 41.01 41.06 C 41.50 44.34 37.37 43.79 35.30 43.52 Z" />
</svg>
