<svg width="50px" height="50px" viewBox="0 0 50 50" version="1.1" xmlns="http://www.w3.org/2000/svg">
<path fill="#f9c765" opacity="1.00" d=" M 1.90 15.78 C 6.03 4.84 18.55 -1.95 29.98 0.64 C 41.96 2.82 51.03 14.82 49.79 26.96 C 49.12 38.83 38.80 49.13 26.93 49.79 C 22.22 50.24 17.53 49.05 13.29 47.05 C 9.69 48.90 4.97 51.12 1.15 48.93 C -1.00 45.39 4.91 44.01 5.79 40.92 C 0.16 33.99 -1.53 24.08 1.90 15.78 M 14.65 5.59 C 7.29 9.44 2.54 17.73 3.04 26.03 C 3.20 31.33 5.61 36.31 9.06 40.26 C 8.12 42.85 6.49 45.08 4.73 47.16 C 7.70 46.52 10.54 45.39 13.06 43.67 C 18.68 46.81 25.53 48.05 31.72 45.92 C 39.56 43.50 45.64 36.32 46.74 28.19 C 48.01 20.24 44.41 11.82 37.86 7.16 C 31.26 2.27 21.85 1.64 14.65 5.59 Z" />
<path fill="#f9c765" opacity="1.00" d=" M 13.37 17.27 C 14.76 16.43 16.49 16.86 18.02 16.73 C 23.96 16.90 29.92 16.49 35.85 16.92 C 37.19 16.98 37.29 19.58 35.74 19.50 C 30.49 19.86 25.21 19.49 19.95 19.64 C 17.86 19.27 12.28 20.95 13.37 17.27 Z" />
<path fill="#f9c765" opacity="1.00" d=" M 12.99 26.10 C 12.93 24.52 13.60 23.69 15.00 23.60 C 21.34 23.49 27.69 23.59 34.03 23.56 C 35.81 23.18 37.10 24.29 37.00 26.11 C 29.03 26.65 20.96 26.66 12.99 26.10 Z" />
<path fill="#f9c765" opacity="1.00" d=" M 14.23 30.51 C 20.50 30.15 26.81 30.52 33.10 30.34 C 34.73 30.25 37.87 30.28 36.62 32.77 C 34.89 33.58 32.89 33.16 31.04 33.27 C 25.41 33.10 19.76 33.51 14.15 33.09 C 12.81 33.00 12.70 30.45 14.23 30.51 Z" />
</svg>
