<svg width="31px" height="31px" viewBox="0 0 31 31" version="1.1" xmlns="http://www.w3.org/2000/svg">
<path fill="#70592d" opacity="0.45" d=" M 11.78 0.00 L 19.33 0.00 C 24.93 1.65 29.43 6.13 31.00 11.76 L 31.00 19.33 C 29.35 24.93 24.87 29.44 19.24 31.00 L 11.66 31.00 C 6.07 29.34 1.56 24.87 0.00 19.23 L 0.00 11.67 C 1.65 6.08 6.14 1.56 11.78 0.00 M 13.37 1.38 C 4.83 2.61 -1.49 12.61 2.32 20.64 C 3.99 25.53 8.67 28.73 13.60 29.68 C 22.99 31.24 32.28 21.16 29.23 11.97 C 27.64 5.11 20.26 0.21 13.37 1.38 Z" />
<path  opacity="1.00" d=" M 12.46 6.50 C 19.23 3.88 26.89 10.95 24.68 17.89 C 23.23 24.78 13.54 27.44 8.81 22.22 C 3.83 17.64 5.95 8.40 12.46 6.50 M 14.09 7.12 C 7.84 7.93 4.70 16.36 9.04 21.00 C 12.93 26.07 21.89 24.30 23.57 18.14 C 25.73 12.39 20.10 5.84 14.09 7.12 Z" />
<path  opacity="1.00" d=" M 14.23 12.23 C 16.55 11.17 19.45 13.45 18.96 15.96 C 18.77 18.44 15.55 19.93 13.55 18.41 C 11.21 17.00 11.65 13.11 14.23 12.23 Z" />
</svg>
