
<svg width="25px" height="25px" viewBox="0 0 25 25" version="1.1" xmlns="http://www.w3.org/2000/svg">
<path  d=" M 8.45 0.00 L 13.92 0.00 C 19.51 0.75 24.09 5.20 24.99 10.77 L 25.00 8.42 L 25.00 14.04 C 24.45 18.65 21.13 22.02 17.37 24.32 C 16.67 23.93 15.98 23.54 15.29 23.14 C 23.39 22.40 26.62 11.22 21.55 5.41 C 17.18 -0.62 7.10 -0.33 3.07 5.92 C -1.49 11.80 1.87 22.48 9.72 23.12 C 9.05 23.53 8.38 23.95 7.71 24.37 C 3.98 22.08 0.67 18.82 0.01 14.24 L 0.00 16.60 L 0.00 11.01 C 0.75 5.39 5.32 0.89 10.90 0.01 L 8.45 0.00 Z" />
<path  d=" M 9.48 5.65 C 14.36 3.18 20.63 7.70 19.97 13.08 C 19.78 18.54 12.83 21.99 8.38 18.75 C 3.47 15.84 4.16 7.72 9.48 5.65 Z" />
<path  d=" M 10.05 25.00 C 10.49 24.63 11.38 23.88 11.82 23.51 C 13.14 23.44 14.19 23.94 14.95 25.00 L 10.05 25.00 Z" />
</svg>
