
<svg width="30px" height="30px" viewBox="0 0 30 30" version="1.1" xmlns="http://www.w3.org/2000/svg">
<path fill="#f6f6f6" opacity="0.96" d=" M 0.00 0.00 L 1.59 0.00 C 6.21 4.25 10.48 8.87 15.00 13.22 C 19.51 8.87 23.79 4.27 28.38 0.00 L 30.00 0.00 L 30.00 1.59 C 25.75 6.21 21.13 10.48 16.78 15.00 C 21.13 19.51 25.73 23.79 30.00 28.38 L 30.00 30.00 L 28.41 30.00 C 23.79 25.75 19.53 21.13 15.00 16.78 C 10.49 21.13 6.21 25.72 1.62 30.00 L 0.00 30.00 L 0.00 28.41 C 4.25 23.79 8.87 19.52 13.22 15.00 C 8.87 10.49 4.28 6.21 0.00 1.62 L 0.00 0.00 Z" />
</svg>
