
<svg width="69px" height="69px" viewBox="0 0 69 69" version="1.1" xmlns="http://www.w3.org/2000/svg">
<path fill="#f9c765" opacity="1.00" d=" M 38.28 0.00 L 41.52 0.00 C 47.89 0.61 53.86 4.40 56.86 10.08 C 60.60 16.80 59.74 25.72 54.75 31.58 C 50.57 36.72 43.62 39.39 37.08 38.36 C 30.57 37.48 24.74 32.95 22.17 26.93 C 19.31 20.43 20.43 12.40 25.02 6.97 C 28.26 2.95 33.18 0.53 38.28 0.00 M 35.51 4.73 C 27.90 6.87 22.96 15.53 25.22 23.16 C 27.06 30.74 35.40 35.95 43.03 34.12 C 51.08 32.62 56.76 23.82 54.68 15.86 C 52.99 7.58 43.58 2.03 35.51 4.73 Z" />
<path fill="#f9c765" opacity="1.00" d=" M 35.15 17.82 C 32.95 13.85 36.98 9.83 40.07 7.92 C 41.86 9.80 46.49 11.95 44.04 14.81 C 42.36 15.50 38.68 12.62 38.60 15.61 C 41.12 17.15 45.01 17.66 45.74 21.05 C 46.81 25.34 42.53 28.02 40.05 30.74 C 38.31 29.51 36.73 28.08 34.99 26.84 C 33.29 26.19 34.02 23.24 35.88 23.45 C 37.63 23.66 39.34 24.08 41.07 24.41 C 41.30 23.77 41.75 22.50 41.97 21.87 C 39.68 20.58 36.83 19.97 35.15 17.82 Z" />
<path fill="#f9c765" opacity="1.00" d=" M 0.00 43.34 C 5.35 40.58 10.84 36.97 17.04 36.95 C 23.77 37.93 29.44 42.18 35.79 44.36 C 43.93 42.94 51.88 40.51 60.02 39.09 C 64.23 38.43 67.94 41.73 69.00 45.63 L 69.00 48.58 C 68.38 50.78 67.27 52.95 65.25 54.16 C 60.12 57.42 54.77 60.30 49.58 63.47 C 45.97 65.56 42.48 68.04 38.35 69.00 L 34.96 69.00 C 28.57 67.33 22.46 64.77 16.20 62.70 C 10.79 64.23 5.78 67.96 0.00 67.58 L 0.00 64.78 C 5.18 62.31 10.58 60.24 16.06 58.55 C 22.53 60.02 28.52 63.11 34.96 64.72 C 38.80 65.65 42.10 63.01 45.23 61.25 C 51.23 57.51 57.56 54.28 63.41 50.33 C 66.78 48.01 63.93 42.06 59.99 43.28 C 52.57 44.71 45.25 46.65 37.86 48.22 C 37.61 51.14 36.93 54.52 33.98 55.90 C 29.72 58.24 25.41 54.79 21.49 53.33 C 19.53 52.15 16.16 51.84 16.20 48.96 C 16.64 48.59 17.52 47.85 17.96 47.48 C 22.50 48.71 26.43 51.52 30.98 52.70 C 33.69 52.35 34.55 48.26 31.84 47.28 C 27.61 45.14 23.26 43.18 18.84 41.47 C 11.99 39.05 6.59 47.37 0.00 45.69 L 0.00 43.34 Z" />
</svg>
