
<svg width="57px" height="57px" viewBox="0 0 57 57" version="1.1" xmlns="http://www.w3.org/2000/svg">
<path fill="#d8ac57" opacity="0.87" d=" M 25.21 6.87 C 23.96 4.14 25.53 0.22 28.97 0.82 C 32.02 0.96 32.74 4.49 31.79 6.87 C 33.83 8.64 35.45 10.99 34.98 13.83 C 30.67 14.01 26.36 13.98 22.06 13.85 C 21.50 11.01 23.18 8.64 25.21 6.87 M 27.00 3.05 C 26.98 4.04 26.98 5.03 26.99 6.02 C 28.00 6.04 29.01 6.04 30.03 6.02 C 30.02 5.01 30.00 4.00 29.96 2.99 C 28.97 3.00 27.99 3.02 27.00 3.05 M 23.85 11.78 C 26.95 11.90 30.06 11.89 33.16 11.77 C 32.12 9.91 30.38 8.00 28.02 8.31 C 26.01 8.53 24.79 10.18 23.85 11.78 Z" />
<path fill="#d8ac57" opacity="0.87" d=" M 10.57 13.48 C 9.34 11.06 10.14 7.66 13.15 7.19 C 16.55 6.64 18.44 10.61 17.02 13.41 C 19.21 15.02 20.50 17.44 20.29 20.20 C 15.87 20.28 11.44 20.47 7.03 20.07 C 7.13 17.41 8.30 14.93 10.57 13.48 M 12.73 9.70 C 10.92 10.60 12.75 12.49 13.81 13.13 C 14.49 12.41 15.18 11.69 15.86 10.96 C 14.99 10.14 13.97 8.29 12.73 9.70 M 9.23 18.12 C 12.24 18.23 15.25 18.24 18.26 18.15 C 16.91 13.86 10.62 13.81 9.23 18.12 Z" />
<path fill="#d8ac57" opacity="0.87" d=" M 39.95 13.46 C 38.57 10.62 40.48 6.52 43.96 7.23 C 46.91 7.72 47.63 11.10 46.43 13.47 C 48.69 14.94 49.86 17.40 49.99 20.05 C 45.57 20.49 41.12 20.28 36.69 20.19 C 36.52 17.46 37.75 15.04 39.95 13.46 M 41.15 10.98 C 41.83 11.70 42.52 12.42 43.21 13.13 C 44.59 12.45 46.04 10.14 43.85 9.45 C 42.73 8.37 41.95 10.44 41.15 10.98 M 38.74 18.15 C 41.74 18.24 44.74 18.23 47.75 18.13 C 46.40 13.78 40.08 13.87 38.74 18.15 Z" />
<path fill="#d8ac57" opacity="0.87" d=" M 24.25 19.17 C 29.44 16.61 36.39 19.52 38.14 25.05 C 40.15 30.13 37.17 36.46 31.96 38.14 C 26.84 40.17 20.46 37.13 18.83 31.86 C 17.00 27.07 19.53 21.18 24.25 19.17 M 26.42 20.61 C 21.96 21.67 19.07 26.96 20.83 31.25 C 22.17 35.34 27.15 37.80 31.19 36.19 C 35.33 34.87 37.84 29.82 36.17 25.76 C 34.90 21.88 30.34 19.42 26.42 20.61 Z" />
<path fill="#d8ac57" opacity="0.87" d=" M 3.97 28.15 C 2.90 25.66 3.98 21.94 7.10 21.95 C 10.39 21.68 11.94 25.51 10.57 28.17 C 12.75 29.75 13.97 32.17 13.98 34.86 C 9.60 35.17 5.21 34.93 0.82 35.01 C 0.46 32.24 1.88 29.84 3.97 28.15 M 6.26 24.18 C 4.66 25.42 6.27 28.31 8.04 27.19 C 10.38 26.45 8.28 22.84 6.26 24.18 M 2.75 32.97 C 5.81 33.02 8.86 33.00 11.92 32.93 C 10.90 31.54 9.94 29.75 8.00 29.62 C 5.63 29.07 3.63 30.95 2.75 32.97 Z" />
<path fill="#d8ac57" opacity="0.87" d=" M 46.41 28.19 C 44.72 24.87 47.37 21.33 50.97 21.81 C 53.10 23.20 53.78 25.55 53.19 27.97 C 54.83 30.03 56.67 32.12 56.18 35.01 C 51.80 34.93 47.40 35.17 43.03 34.86 C 43.01 32.18 44.25 29.77 46.41 28.19 M 48.49 24.53 C 46.72 26.01 49.37 28.49 50.93 26.96 C 52.47 25.42 49.97 22.73 48.49 24.53 M 45.08 32.92 C 48.14 33.00 51.19 33.02 54.25 32.97 C 53.36 30.93 51.34 29.05 48.95 29.62 C 47.04 29.79 46.08 31.55 45.08 32.92 Z" />
<path fill="#d8ac57" opacity="0.87" d=" M 10.55 42.77 C 8.43 39.24 12.15 35.39 15.90 36.90 C 14.90 38.29 13.13 38.76 12.01 40.01 C 11.45 41.75 13.48 42.25 14.74 42.08 C 15.33 40.60 16.04 39.17 16.97 37.87 C 17.00 39.13 17.05 41.64 17.08 42.89 C 19.12 44.64 20.78 47.04 20.06 49.87 C 15.89 49.86 11.73 49.84 7.57 49.91 C 6.43 47.07 8.53 44.51 10.55 42.77 M 9.19 47.75 C 12.21 47.80 15.24 47.81 18.26 47.76 C 17.44 46.04 16.10 44.28 13.99 44.26 C 11.71 44.01 10.16 45.97 9.19 47.75 Z" />
<path fill="#d8ac57" opacity="0.87" d=" M 39.95 42.87 C 38.88 40.37 39.83 36.67 43.06 36.74 C 46.28 36.42 48.00 40.23 46.41 42.79 C 48.30 44.44 50.44 46.76 49.62 49.50 C 45.48 50.37 41.11 49.64 36.88 49.85 C 36.29 47.00 37.88 44.62 39.95 42.87 M 41.93 42.15 C 43.63 42.58 46.21 41.12 44.55 39.28 C 42.66 37.74 40.72 40.29 41.93 42.15 M 38.75 47.76 C 41.77 47.81 44.80 47.80 47.82 47.75 C 46.97 46.45 46.17 44.93 44.57 44.49 C 42.07 43.53 39.58 45.47 38.75 47.76 Z" />
<path fill="#d8ac57" opacity="0.87" d=" M 25.19 49.51 C 23.94 46.64 25.43 42.68 29.02 43.12 C 32.18 43.60 32.68 46.94 31.82 49.49 C 34.07 50.96 35.18 53.45 35.17 56.09 C 30.72 56.29 26.27 56.28 21.83 56.09 C 21.83 53.46 22.92 50.94 25.19 49.51 M 27.45 45.63 C 26.09 46.52 27.28 49.42 28.88 48.55 C 31.62 48.14 29.32 43.52 27.45 45.63 M 23.98 54.17 C 27.02 54.23 30.05 54.22 33.09 54.15 C 31.67 49.81 25.30 49.70 23.98 54.17 Z" />
</svg>
