
<svg width="53px" height="54px" viewBox="0 0 53 54" version="1.1" xmlns="http://www.w3.org/2000/svg">
<path fill="#f8c765" opacity="1.00" d=" M 0.00 5.40 C -0.07 2.65 2.07 -0.06 4.96 0.15 C 13.98 0.15 23.01 -0.01 32.02 0.23 C 35.40 1.28 37.65 4.62 39.87 7.24 C 40.87 11.96 40.06 16.90 40.31 21.71 C 42.78 19.63 44.57 16.04 48.06 15.63 C 51.98 15.31 54.50 20.65 51.71 23.46 C 48.03 27.49 44.08 31.26 40.30 35.20 C 40.24 40.13 40.49 45.07 40.20 49.99 C 40.03 52.18 37.98 53.47 36.06 54.00 L 4.10 54.00 C 2.32 52.98 0.66 51.47 0.00 49.49 L 0.00 5.40 M 4.30 3.41 C 4.08 3.62 3.62 4.04 3.39 4.25 C 3.15 19.39 3.17 34.57 3.38 49.71 C 3.62 49.93 4.10 50.37 4.33 50.59 C 13.90 50.84 23.48 50.59 33.06 50.71 C 34.43 50.76 35.83 50.66 37.12 50.16 C 37.22 46.31 37.17 42.45 37.20 38.60 C 34.25 39.18 31.14 41.73 28.22 40.76 C 27.34 37.99 29.49 34.94 30.22 32.18 C 32.33 29.56 34.91 27.36 37.18 24.89 C 37.18 20.84 37.19 16.80 37.18 12.76 C 34.11 12.51 30.86 13.35 27.94 12.17 C 27.99 9.22 27.90 6.26 27.93 3.31 C 20.06 3.39 12.17 3.17 4.30 3.41 M 31.15 3.03 C 31.07 5.21 31.02 7.39 31.07 9.56 C 33.17 9.57 35.27 9.56 37.36 9.52 C 35.87 6.90 33.53 4.85 31.15 3.03 M 45.54 20.88 C 46.31 21.60 47.05 22.34 47.76 23.12 C 48.59 22.01 50.85 20.52 49.07 19.11 C 47.56 18.09 46.60 20.18 45.54 20.88 M 35.97 30.69 C 36.71 31.38 37.43 32.11 38.12 32.85 C 40.57 30.34 43.03 27.84 45.48 25.33 C 44.94 24.79 43.88 23.72 43.35 23.18 C 40.89 25.69 38.45 28.20 35.97 30.69 M 33.37 32.90 C 32.85 34.28 32.33 35.65 31.87 37.05 C 33.25 36.60 34.59 36.03 35.94 35.50 C 35.28 34.45 34.38 33.61 33.37 32.90 Z" />
<path fill="#f8c765" opacity="1.00" d=" M 6.99 15.98 C 14.35 15.75 21.73 15.92 29.10 15.89 C 31.06 15.31 31.88 18.49 29.97 18.98 C 22.33 19.06 14.66 19.23 7.02 18.90 L 6.36 18.04 C 6.51 17.52 6.83 16.49 6.99 15.98 Z" />
<path fill="#f8c765" opacity="1.00" d=" M 7.11 22.28 C 12.70 21.97 18.32 22.08 23.91 22.23 C 25.62 22.86 24.90 25.84 22.99 25.33 C 17.90 25.40 12.81 25.44 7.74 25.31 C 6.15 25.36 5.81 22.94 7.11 22.28 Z" />
<path fill="#f8c765" opacity="1.00" d=" M 7.30 28.53 C 12.50 28.31 17.71 28.47 22.91 28.44 C 24.44 28.24 25.19 29.58 24.80 30.94 C 23.78 31.89 22.34 31.58 21.08 31.65 C 16.47 31.54 11.85 31.77 7.24 31.54 C 5.97 31.00 5.99 29.01 7.30 28.53 Z" />
<path fill="#f8c765" opacity="1.00" d=" M 6.85 34.91 C 12.25 34.57 17.68 34.80 23.09 34.77 C 24.96 34.33 25.63 37.36 23.86 37.85 C 18.27 37.97 12.66 38.08 7.08 37.79 L 6.32 36.93 C 6.45 36.43 6.71 35.42 6.85 34.91 Z" />
<path fill="#f8c765" opacity="1.00" d=" M 20.27 44.43 C 23.40 44.32 26.55 44.30 29.69 44.44 C 31.53 44.39 31.55 47.60 29.67 47.50 C 26.34 47.61 22.98 47.68 19.65 47.45 C 17.97 47.15 18.51 44.03 20.27 44.43 Z" />
</svg>
