
<svg width="54px" height="52px" viewBox="0 0 54 52" version="1.1" xmlns="http://www.w3.org/2000/svg">
<path fill="#f8c665" opacity="1.00" d=" M 17.22 8.28 C 20.44 5.51 23.33 2.34 26.92 0.01 C 30.52 2.34 33.42 5.54 36.67 8.32 C 42.42 13.60 48.36 18.69 54.00 24.09 L 54.00 25.54 C 50.96 27.12 49.11 23.17 46.89 21.72 C 46.83 30.17 46.95 38.62 46.85 47.07 C 47.03 49.22 45.70 51.06 43.84 52.00 L 34.68 52.00 C 33.36 51.48 31.72 50.69 31.68 49.04 C 31.35 44.14 31.68 39.22 31.53 34.32 C 28.51 34.22 25.49 34.22 22.47 34.32 C 22.32 39.21 22.64 44.11 22.33 48.99 C 22.36 50.54 20.80 51.23 19.74 52.00 L 10.43 52.00 C 8.67 51.45 6.99 50.05 7.16 48.03 C 7.04 39.22 7.17 30.41 7.11 21.60 C 5.40 23.11 3.70 24.64 1.98 26.15 C 1.49 25.92 0.50 25.46 0.00 25.23 L 0.00 23.96 C 5.59 18.58 11.50 13.53 17.22 8.28 M 10.44 18.60 C 9.88 28.59 10.28 38.73 10.25 48.77 C 13.26 48.82 16.27 48.81 19.28 48.84 C 19.61 43.81 19.06 38.74 19.56 33.73 C 20.49 30.44 24.42 31.26 26.99 31.15 C 29.58 31.25 33.48 30.46 34.44 33.74 C 34.81 38.75 34.37 43.79 34.65 48.80 C 37.65 48.83 40.66 48.87 43.66 48.67 C 44.02 38.77 43.70 28.86 43.82 18.96 C 38.21 13.85 32.56 8.78 26.93 3.70 C 21.44 8.67 15.87 13.57 10.44 18.60 Z" />
</svg>
