
<svg width="47px" height="57px" viewBox="0 0 47 57" version="1.1" xmlns="http://www.w3.org/2000/svg">
<path fill="#f9c765" opacity="1.00" d=" M 14.51 0.00 L 32.41 0.00 C 34.11 2.12 35.61 4.56 38.05 5.93 C 40.43 7.44 43.34 7.48 45.97 8.26 C 46.70 10.78 46.31 13.45 46.38 16.04 C 46.23 22.97 47.03 30.14 44.64 36.80 C 41.45 46.33 33.50 54.09 23.87 57.00 L 23.13 57.00 C 13.51 54.09 5.57 46.35 2.37 36.83 C -0.04 30.16 0.77 22.96 0.62 16.01 C 0.68 13.43 0.31 10.77 1.02 8.25 C 3.66 7.49 6.57 7.43 8.95 5.93 C 11.36 4.56 12.93 2.20 14.51 0.00 M 16.40 3.38 C 13.60 7.62 9.08 10.47 4.05 11.20 C 4.51 20.09 2.66 29.50 6.44 37.90 C 9.54 45.26 15.97 50.86 23.40 53.60 C 30.98 51.01 37.46 45.25 40.59 37.84 C 44.33 29.45 42.49 20.07 42.95 11.19 C 37.92 10.47 33.40 7.62 30.60 3.37 C 25.87 3.37 21.13 3.37 16.40 3.38 Z" />
<path fill="#f9c765" opacity="1.00" d=" M 7.49 14.28 C 11.22 12.14 15.40 10.37 18.05 6.72 C 21.68 6.57 25.32 6.57 28.94 6.72 C 31.60 10.38 35.79 12.13 39.53 14.30 C 39.81 19.53 39.86 24.82 39.42 30.05 C 38.27 38.78 32.15 46.74 23.88 49.85 C 18.29 48.62 13.71 44.05 10.76 39.24 C 6.19 31.76 7.29 22.63 7.49 14.28 M 19.59 10.12 C 17.15 12.83 14.09 14.87 10.76 16.33 C 10.82 20.56 10.56 24.80 10.90 29.02 C 11.65 36.56 16.75 43.34 23.63 46.43 C 28.42 43.91 32.57 39.97 34.59 34.88 C 37.12 29.02 36.03 22.51 36.24 16.33 C 32.84 14.87 29.80 12.73 27.26 10.05 C 24.70 10.04 22.14 10.06 19.59 10.12 Z" />
<path fill="#f9c765" opacity="1.00" d=" M 20.90 31.19 C 24.30 27.96 27.37 24.37 30.99 21.39 C 33.10 21.28 33.62 23.93 31.96 24.94 C 28.27 28.37 25.10 32.42 21.03 35.39 C 18.34 34.16 16.58 31.51 14.48 29.50 C 13.29 28.45 14.45 26.58 15.90 26.58 C 17.81 27.83 19.30 29.59 20.90 31.19 Z" />
</svg>
