
<svg width="204px" height="16px" viewBox="0 0 204 16" version="1.1" xmlns="http://www.w3.org/2000/svg">
<path fill="#ecc66b" opacity="0.7"  d=" M 0.00 0.00 L 49.26 0.00 C 49.04 2.02 46.50 2.06 44.97 1.88 C 29.98 1.43 14.99 1.19 0.00 1.01 L 0.00 0.00 Z" />
<path fill="#ecc66b" opacity="0.7"  d=" M 50.32 2.18 C 50.97 1.52 51.61 0.86 52.26 0.21 C 67.18 0.36 82.10 0.78 97.01 0.98 C 115.55 1.07 134.09 0.84 152.63 1.19 C 166.30 1.54 179.98 1.74 193.65 2.00 C 194.20 2.72 194.74 3.44 195.28 4.17 C 196.51 5.82 197.90 7.33 199.20 8.92 C 199.36 9.22 199.67 9.83 199.83 10.13 C 201.24 11.61 202.62 13.12 204.00 14.63 L 204.00 16.00 L 202.82 16.00 C 201.55 14.07 200.02 12.32 198.31 10.77 C 197.98 10.29 197.33 9.33 197.01 8.85 L 196.90 8.05 L 195.73 7.93 L 196.03 6.68 L 194.54 7.19 L 195.08 5.69 C 194.81 5.62 194.27 5.49 194.01 5.43 C 193.70 2.31 190.22 3.16 188.03 3.00 C 172.28 2.75 156.48 3.55 140.76 2.49 L 140.45 3.68 L 140.24 2.39 C 138.20 2.79 136.12 2.81 134.06 2.68 C 106.15 1.98 78.23 1.78 50.32 2.18 Z" />
</svg>
