<svg width="93" height="87" viewBox="0 0 93 87" fill="none" xmlns="http://www.w3.org/2000/svg">
<path d="M45.44 0H45.8533C48 1.13333 49.8267 2.73333 51.5467 4.42667C57.3867 10.0933 63.6 15.36 69.3333 21.1467V52H51.5067C49.96 47.12 51.0133 41.9333 50.7467 36.92C48.0267 36.9333 45.3067 36.9333 42.5867 36.92C42.3467 41.9333 43.3067 47.0933 41.8667 52H24V21.2C30.9333 13.92 38.3067 7.08 45.44 0ZM27.7467 22.5067C27.7733 31.08 27.7467 39.6667 27.76 48.24C31.48 48.24 35.1867 48.24 38.9067 48.24C39.1733 43.2267 38.24 38.0933 39.5467 33.1867C44.2933 33.2933 49.04 33.2933 53.7733 33.1867C55.0933 38.0933 54.16 43.2267 54.4267 48.24C58.1467 48.24 61.8533 48.24 65.5733 48.24C65.5867 39.6667 65.56 31.1067 65.5867 22.5333C59.0933 16.52 52.6 10.5067 46.1067 4.50667C39.9867 10.5067 33.8533 16.4933 27.7467 22.5067Z" fill="#FEFEFE"/>
<path d="M12.42 65.97H11.016V80.55H12.42V81H8.118V80.55H9.522V73.332H3.816V80.55H5.22V81H0.918V80.55H2.322V65.97H0.918V65.52H5.22V65.97H3.816V72.72H9.522V65.97H8.118V65.52H12.42V65.97ZM21.3782 74.466C21.4862 75.078 21.5222 75.78 21.5222 76.5C21.5222 77.202 21.4862 77.922 21.3782 78.534C21.1262 80.118 20.3702 81.108 17.7962 81.108C15.2222 81.108 14.4662 80.118 14.2142 78.534C14.1242 77.922 14.0702 77.202 14.0702 76.5C14.0702 75.78 14.1242 75.078 14.2142 74.466C14.4662 72.882 15.2582 71.892 17.7962 71.892C20.2982 71.892 21.1082 72.864 21.3782 74.466ZM20.0462 78.57C20.1362 77.85 20.1722 77.148 20.1722 76.5C20.1722 75.852 20.1362 75.15 20.0462 74.43C19.9202 73.332 19.6322 72.306 17.7962 72.306C15.9602 72.306 15.6722 73.332 15.5462 74.43C15.4742 75.15 15.4202 75.852 15.4202 76.5C15.4202 77.148 15.4742 77.85 15.5462 78.57C15.6722 79.668 15.9602 80.694 17.7962 80.694C19.6322 80.694 19.9202 79.668 20.0462 78.57ZM31.7675 80.55H32.2355V81H30.8495C29.7155 81 29.6615 80.766 29.6975 79.452C29.3195 80.496 28.4555 81.108 26.8535 81.108C25.0895 81.108 24.2795 80.352 24.2795 78.462V72.45H23.0195V72C23.8835 72 24.7295 71.982 25.5935 71.874V78.516C25.5935 79.434 25.7375 80.676 27.4295 80.676C28.6715 80.676 29.6615 79.542 29.6615 77.67V72.45H28.4015V72C29.2655 72 30.1115 71.982 30.9755 71.874V79.722C30.9755 80.424 31.1195 80.55 31.7675 80.55ZM37.747 75.6C39.601 76.104 40.249 76.842 40.249 78.462C40.249 79.902 39.457 81.108 37.099 81.108C34.237 81.108 33.841 79.884 33.841 78.57V78.156H35.065V78.534C35.065 80.226 35.749 80.694 37.099 80.694C38.539 80.694 39.295 80.118 39.295 78.714C39.295 77.94 39.079 77.31 36.973 76.734C35.101 76.23 34.129 75.834 34.129 74.052C34.129 73.224 34.525 71.856 36.775 71.856C38.125 71.856 38.629 72.54 38.827 73.242L38.863 71.964H39.727V74.376H38.611C38.611 73.206 38.089 72.27 36.793 72.27C35.551 72.27 35.029 72.684 35.029 73.656C35.029 75.042 36.271 75.186 37.747 75.6ZM47.8104 78.174H48.9624C48.9624 80.172 48.1704 81.126 45.9204 81.126C43.9584 81.126 42.4284 80.604 42.2664 78.192C42.2304 77.634 42.2124 77.094 42.2124 76.5C42.2124 75.906 42.2304 75.366 42.2664 74.808C42.4284 72.396 43.9224 71.874 45.7404 71.874C47.3604 71.874 48.8364 72.396 48.9804 74.808C49.0164 75.366 48.9804 76.014 48.9804 76.572H43.5624C43.5624 77.184 43.5804 77.652 43.6164 78.3C43.7244 79.92 44.2644 80.712 45.9204 80.712C47.5044 80.712 47.8104 79.902 47.8104 78.174ZM43.6164 74.7C43.5804 75.186 43.5624 75.6 43.5624 76.122H47.8104C47.8104 75.546 47.8104 75.222 47.7924 74.754C47.7564 73.872 47.6664 72.288 45.7404 72.288C44.2464 72.288 43.7244 73.08 43.6164 74.7ZM65.7696 76.68V77.4C65.7696 78.984 65.2296 81.18 61.9176 81.18C59.9376 81.18 58.3716 81.09 57.5796 78.066C57.2736 76.878 57.1296 75.186 57.1296 73.476C57.1296 71.64 57.2916 69.786 57.5616 68.58C58.1196 66.096 59.2356 65.358 61.6476 65.358C63.3036 65.358 64.1856 65.952 64.4916 67.014L64.5996 65.43H65.6076V69.444H64.4376C64.3656 66.816 63.7356 65.898 61.6296 65.898C59.8296 65.898 59.2896 66.528 58.9656 68.706C58.8216 69.732 58.6956 71.82 58.6956 73.872C58.6956 75.492 58.7676 77.076 58.9656 78.102C59.4336 80.46 60.2076 80.64 61.9176 80.64C64.1856 80.64 64.3296 79.614 64.3296 77.4V76.68H65.7696ZM74.917 80.55H75.457V81H74.125C73.009 81 72.829 80.82 72.847 79.83C72.505 80.676 71.731 81.108 70.417 81.108C67.933 81.108 67.645 79.812 67.645 78.57C67.645 77.004 68.167 76.374 70.291 76.068C70.849 75.978 71.389 75.96 71.929 75.96C72.217 75.96 72.523 75.96 72.811 75.978V74.106C72.811 72.828 72.199 72.27 71.191 72.27C69.427 72.27 69.391 73.422 69.409 73.944L69.427 74.448H68.131L68.113 74.034C68.041 72.234 69.427 71.856 71.137 71.856C72.883 71.856 74.125 72.252 74.125 74.232V79.704C74.125 80.316 74.323 80.55 74.917 80.55ZM72.811 78.228V76.41C72.487 76.374 72.163 76.356 71.839 76.356C71.515 76.356 71.191 76.374 70.867 76.428C69.121 76.716 68.995 77.616 68.995 78.642C68.995 79.434 69.103 80.658 70.831 80.658C72.109 80.658 72.811 79.686 72.811 78.228ZM80.8172 71.892C82.4012 71.892 82.9592 72.342 82.9592 73.764V74.754L81.8792 74.736V73.89C81.8792 72.972 81.7892 72.306 80.8172 72.306C79.5392 72.306 78.9452 73.134 78.9452 75.474V80.55H80.8532V81H76.3712V80.55H77.6312V72.45H76.3712V72C77.1272 72 77.8652 71.928 78.6212 71.82L78.6752 73.8C78.9452 72.504 79.7552 71.892 80.8172 71.892ZM90.0682 78.174H91.2202C91.2202 80.172 90.4282 81.126 88.1782 81.126C86.2162 81.126 84.6862 80.604 84.5242 78.192C84.4882 77.634 84.4702 77.094 84.4702 76.5C84.4702 75.906 84.4882 75.366 84.5242 74.808C84.6862 72.396 86.1802 71.874 87.9982 71.874C89.6182 71.874 91.0942 72.396 91.2382 74.808C91.2742 75.366 91.2382 76.014 91.2382 76.572H85.8202C85.8202 77.184 85.8382 77.652 85.8742 78.3C85.9822 79.92 86.5222 80.712 88.1782 80.712C89.7622 80.712 90.0682 79.902 90.0682 78.174ZM85.8742 74.7C85.8382 75.186 85.8202 75.6 85.8202 76.122H90.0682C90.0682 75.546 90.0682 75.222 90.0502 74.754C90.0142 73.872 89.9242 72.288 87.9982 72.288C86.5042 72.288 85.9822 73.08 85.8742 74.7Z" fill="#FEFEFE"/>
</svg>
