
<svg width="40pt" height="28pt" viewBox="0 0 40 28" version="1.1" xmlns="http://www.w3.org/2000/svg">
<path fill="#e4e4e4" opacity="0.89" d=" M 0.23 0.00 L 39.70 0.00 C 39.78 0.01 39.93 0.02 40.00 0.03 L 40.00 2.71 C 34.08 3.91 27.98 3.02 21.98 3.28 C 14.66 3.00 7.25 3.90 0.00 2.75 L 0.00 0.25 C 0.06 0.19 0.17 0.06 0.23 0.00 Z" />
<path fill="#e4e4e4" opacity="0.89" d=" M 0.00 12.98 C 1.62 12.46 3.32 12.32 5.01 12.33 C 14.67 12.39 24.32 12.39 33.98 12.34 C 35.99 12.33 38.02 12.40 40.00 12.84 L 40.00 15.02 C 34.44 16.36 28.64 15.31 22.98 15.63 C 15.33 15.35 7.60 16.22 0.00 15.16 L 0.00 12.98 Z" />
<path fill="#e4e4e4" opacity="0.89" d=" M 0.00 25.29 C 6.91 24.05 14.00 25.02 20.98 24.72 C 27.32 24.97 33.73 24.12 40.00 25.27 L 40.00 27.75 C 39.94 27.81 39.83 27.94 39.77 28.00 L 0.30 28.00 C 0.22 27.99 0.07 27.98 0.00 27.97 L 0.00 25.29 Z" />
</svg>
