
<svg width="76px" height="76px" viewBox="0 0 76 76" version="1.1" xmlns="http://www.w3.org/2000/svg">
<path fill="#f9c765" opacity="1.00" d=" M 36.55 0.00 L 39.28 0.00 C 42.82 0.69 46.03 3.30 46.70 6.94 C 47.50 9.78 46.12 12.51 44.98 15.02 C 50.09 18.50 52.88 24.96 51.25 31.04 C 48.98 32.03 46.44 31.62 44.05 31.71 C 38.12 31.54 32.17 31.95 26.25 31.54 C 23.86 31.50 24.49 28.62 24.35 27.01 C 24.24 22.09 27.21 17.83 31.03 15.01 C 29.85 12.49 28.49 9.73 29.31 6.88 C 29.99 3.31 33.13 0.79 36.55 0.00 M 35.40 5.35 C 32.74 7.10 33.14 11.55 36.03 12.84 C 38.74 14.40 42.46 12.10 42.42 9.01 C 42.66 5.52 38.13 3.11 35.40 5.35 M 28.68 27.17 C 34.89 27.19 41.11 27.19 47.32 27.17 C 46.99 22.30 43.12 17.67 37.98 17.87 C 32.85 17.70 29.01 22.32 28.68 27.17 Z" />
<path fill="#f9c765" opacity="1.00" d=" M 17.42 18.48 C 18.97 16.67 22.19 18.65 21.09 20.88 C 19.22 23.42 16.88 25.61 15.41 28.44 C 13.51 31.59 12.82 35.25 11.57 38.67 C 10.29 40.14 7.37 39.05 7.69 37.03 C 8.75 30.01 12.33 23.40 17.42 18.48 Z" />
<path fill="#f9c765" opacity="1.00" d=" M 55.37 18.39 C 56.49 17.30 58.27 17.84 59.12 18.98 C 63.91 23.89 67.32 30.28 68.33 37.09 C 68.60 39.50 64.60 40.23 64.11 37.89 C 62.77 32.81 60.91 27.70 57.28 23.79 C 56.11 22.27 53.54 20.41 55.37 18.39 Z" />
<path fill="#f9c765" opacity="1.00" d=" M 6.18 48.23 C 9.36 43.15 17.63 43.08 20.90 48.09 C 23.47 51.48 22.52 55.99 20.53 59.39 C 25.86 62.91 28.75 69.85 26.45 76.00 L 0.39 76.00 C 0.29 75.91 0.10 75.74 0.00 75.65 L 0.00 69.11 C 0.88 65.12 3.35 61.73 6.67 59.41 C 4.69 56.05 3.72 51.61 6.18 48.23 M 11.37 49.44 C 8.60 50.92 8.45 55.29 11.14 56.92 C 13.96 59.06 18.37 56.43 18.00 52.98 C 17.90 49.85 14.03 47.70 11.37 49.44 M 4.23 71.44 C 10.47 71.54 16.71 71.54 22.94 71.44 C 22.56 66.35 18.24 61.66 12.90 62.24 C 8.05 62.44 4.69 66.87 4.23 71.44 Z" />
<path fill="#f9c765" opacity="1.00" d=" M 54.71 48.71 C 57.54 43.44 65.77 42.85 69.36 47.62 C 72.29 50.99 71.49 55.86 69.34 59.41 C 72.79 61.84 75.43 65.44 76.00 69.70 L 76.00 75.60 C 75.92 75.70 75.77 75.90 75.69 76.00 L 49.76 76.00 C 46.97 70.00 50.24 62.89 55.47 59.39 C 53.66 56.17 52.56 52.07 54.71 48.71 M 60.30 49.38 C 57.39 50.82 57.24 55.40 60.09 57.00 C 62.93 59.00 67.20 56.36 66.82 52.96 C 66.73 49.89 62.96 47.75 60.30 49.38 M 53.06 71.44 C 59.29 71.54 65.53 71.54 71.77 71.44 C 71.31 66.85 67.92 62.42 63.05 62.24 C 57.73 61.68 53.45 66.37 53.06 71.44 Z" />
<path fill="#f9c765" opacity="1.00" d=" M 27.33 56.50 C 29.15 55.97 31.02 57.02 32.84 57.19 C 37.88 58.34 42.98 57.23 47.91 56.19 C 50.14 56.09 50.72 59.65 48.68 60.37 C 41.91 62.75 34.26 62.81 27.47 60.50 C 25.74 59.96 25.66 57.16 27.33 56.50 Z" />
</svg>
