
<svg width="49px" height="50px" viewBox="0 0 49 50" version="1.1" xmlns="http://www.w3.org/2000/svg">
<path fill="#f8c665" opacity="1.00" d=" M 25.95 0.67 C 27.37 -0.66 29.36 0.83 30.95 1.05 C 40.43 4.11 48.28 13.18 48.72 23.24 L 47.42 23.84 L 46.34 23.19 C 44.72 14.19 38.23 5.89 29.16 3.58 C 27.80 3.10 24.64 2.93 25.95 0.67 Z" />
<path fill="#f8c665" opacity="1.00" d=" M 7.45 3.46 C 10.59 1.80 13.27 4.71 15.20 6.81 C 17.06 9.04 20.10 10.82 20.26 14.00 C 20.14 17.10 17.22 18.91 15.34 21.01 C 18.38 26.48 22.90 31.14 28.36 34.22 C 30.60 32.10 32.93 28.32 36.56 29.51 C 39.50 31.00 41.42 33.93 43.81 36.14 C 45.78 37.79 46.74 40.86 45.05 43.05 C 42.27 46.36 38.99 50.63 34.08 49.82 C 25.93 48.62 18.77 43.75 12.92 38.16 C 6.71 31.81 1.25 23.96 0.14 14.96 C -0.47 9.89 3.86 6.24 7.45 3.46 M 3.49 11.55 C 2.04 15.56 4.09 19.78 5.71 23.41 C 11.27 34.24 20.96 43.57 32.92 46.72 C 37.52 48.33 40.54 43.91 43.07 40.91 C 43.01 40.53 42.87 39.78 42.81 39.40 C 40.42 36.67 37.91 34.01 35.02 31.81 C 32.59 33.39 31.04 36.98 28.04 37.18 C 22.29 34.62 17.70 29.90 14.20 24.75 C 13.44 23.25 11.92 21.57 12.64 19.79 C 14.27 17.79 16.27 16.11 17.79 14.01 C 15.51 10.93 12.58 8.45 9.97 5.67 C 7.18 6.77 5.23 9.22 3.49 11.55 Z" />
<path fill="#f8c665" opacity="1.00" d=" M 25.61 9.66 C 26.52 8.52 28.21 9.57 29.36 9.75 C 34.97 11.67 39.45 16.93 40.01 22.89 C 40.13 24.68 37.20 24.54 37.26 22.83 C 36.19 18.35 33.20 14.04 28.62 12.69 C 27.30 12.16 24.22 11.70 25.61 9.66 Z" />
</svg>
