
<svg width="50px" height="50px" viewBox="0 0 50 50" version="1.1" xmlns="http://www.w3.org/2000/svg">
<path fill="#f9c765" opacity="1.00" d=" M 0.39 6.96 C -1.11 3.18 3.02 -1.04 6.83 0.34 C 9.68 1.66 12.32 3.41 15.01 5.04 C 17.08 5.75 16.66 7.85 15.19 9.00 C 18.30 12.36 21.49 15.65 24.58 19.03 C 26.44 17.38 28.21 15.64 29.90 13.83 C 27.63 7.32 32.90 -0.33 39.93 0.13 C 41.70 0.37 45.04 0.39 44.92 2.85 C 43.64 4.56 41.89 5.86 40.57 7.54 C 39.72 8.50 40.90 9.98 42.02 9.68 C 43.92 8.36 45.28 6.42 47.14 5.05 C 49.87 5.15 49.75 8.90 49.85 10.93 C 49.70 17.63 42.35 22.21 36.16 20.09 C 34.66 21.54 33.18 23.03 31.74 24.54 C 37.32 28.84 43.55 32.45 48.13 37.89 C 50.78 40.78 50.31 45.77 47.30 48.21 C 44.50 50.67 39.98 50.26 37.37 47.73 C 32.29 43.14 28.36 37.48 23.91 32.30 C 22.63 33.58 21.35 34.86 20.09 36.16 C 21.32 40.51 19.99 45.62 16.07 48.14 C 12.96 50.27 8.63 50.50 5.37 48.58 C 3.94 45.20 10.81 44.00 9.32 40.74 C 6.03 39.07 4.82 46.11 1.40 44.62 C -0.59 41.14 -0.22 36.50 2.28 33.37 C 4.90 29.82 9.72 28.77 13.84 29.91 C 15.36 28.42 16.88 26.91 18.41 25.43 C 15.37 21.93 12.10 18.64 8.94 15.26 C 7.78 16.72 5.72 17.00 5.04 14.98 C 3.44 12.34 1.73 9.75 0.39 6.96 M 3.33 4.38 C 2.84 7.40 5.87 9.81 7.02 12.47 C 7.53 12.20 8.53 11.65 9.04 11.38 C 13.16 14.94 16.72 19.13 20.37 23.18 C 21.13 22.54 21.88 21.90 22.64 21.26 C 18.90 17.18 14.80 13.40 11.39 9.02 C 11.66 8.52 12.20 7.52 12.47 7.02 C 9.67 6.01 6.03 1.13 3.33 4.38 M 33.52 6.52 C 31.88 8.86 32.39 11.83 33.36 14.33 C 27.25 20.90 20.89 27.29 14.30 33.37 C 11.81 32.39 8.84 31.88 6.50 33.54 C 3.96 34.97 3.09 37.93 2.94 40.66 C 4.10 39.65 5.15 38.49 6.49 37.71 C 9.05 36.42 12.42 38.35 12.65 41.20 C 13.07 43.71 10.81 45.30 9.37 46.95 C 13.09 47.16 16.91 44.76 17.47 40.90 C 18.18 38.77 15.83 36.28 17.54 34.46 C 22.98 28.92 28.53 23.47 34.00 17.96 C 35.78 15.57 38.65 18.18 40.96 17.45 C 44.82 16.86 47.08 13.05 47.11 9.38 C 45.05 11.67 41.38 14.26 38.62 11.42 C 35.72 8.67 38.26 4.96 40.66 2.95 C 37.92 3.07 34.96 3.98 33.52 6.52 M 29.55 26.65 C 28.38 27.83 27.22 29.00 26.05 30.18 C 26.99 31.32 27.93 32.46 28.87 33.60 C 30.31 32.16 31.75 30.72 33.17 29.25 C 31.95 28.39 30.75 27.52 29.55 26.65 M 30.80 35.93 C 33.79 39.57 36.66 43.43 40.44 46.29 C 43.71 48.55 48.24 44.62 46.61 41.07 C 43.97 36.83 39.57 34.15 35.74 31.09 C 34.05 32.66 32.40 34.28 30.80 35.93 Z" />
<path fill="#f9c765" opacity="1.00" d=" M 35.96 35.20 L 37.01 35.00 C 39.45 37.42 43.06 39.57 44.03 42.91 C 42.25 45.51 40.03 41.63 38.53 40.48 C 37.47 38.92 33.84 37.24 35.96 35.20 Z" />
</svg>
