
<svg width="60px" height="67px" viewBox="0 0 60 67" version="1.1" xmlns="http://www.w3.org/2000/svg">
<path fill="#f9c765" opacity="1.00" d=" M 10.31 0.00 L 42.14 0.00 C 47.15 0.17 52.11 3.80 52.73 8.94 C 53.09 13.94 52.77 18.96 52.90 23.97 C 52.71 25.60 53.37 27.77 51.73 28.84 C 50.48 29.75 48.72 29.12 47.91 27.93 C 47.22 21.86 48.13 15.70 47.49 9.62 C 47.12 7.03 44.49 5.29 41.96 5.52 C 31.66 5.48 21.36 5.47 11.06 5.52 C 8.01 5.21 5.23 7.95 5.52 11.01 C 5.45 23.65 5.53 36.30 5.50 48.95 C 5.56 52.94 4.85 57.23 7.16 60.77 C 11.30 61.61 15.55 60.92 19.72 61.41 C 22.63 61.81 22.25 65.23 20.83 67.00 L 20.33 67.00 C 20.45 66.88 20.70 66.65 20.82 66.54 C 16.60 66.70 12.33 67.11 8.14 66.46 C 3.52 65.51 0.56 61.11 0.00 56.64 L 0.00 11.24 C 0.00 5.44 4.57 0.53 10.31 0.00 Z" />
<path fill="#f9c765" opacity="1.00" d=" M 11.46 16.48 C 12.63 15.34 14.59 16.02 16.07 15.79 C 24.08 15.89 32.10 15.70 40.10 15.88 C 43.28 15.69 43.26 21.12 40.15 20.99 C 31.09 21.11 22.01 21.12 12.95 20.99 C 10.73 21.09 9.70 17.79 11.46 16.48 Z" />
<path fill="#f9c765" opacity="1.00" d=" M 12.33 26.35 C 20.55 25.94 28.80 26.33 37.03 26.16 C 38.63 26.35 40.68 25.72 41.91 27.09 C 43.41 28.55 42.15 31.65 40.00 31.39 C 31.00 31.46 22.00 31.50 13.01 31.37 C 10.22 31.58 9.67 26.98 12.33 26.35 Z" />
<path fill="#f9c765" opacity="1.00" d=" M 40.63 43.65 C 44.29 40.46 47.35 34.89 52.97 35.62 C 58.77 36.06 61.92 43.79 58.09 48.16 C 54.51 52.22 50.41 55.77 46.72 59.72 C 44.74 61.72 42.86 64.26 39.86 64.66 C 37.31 65.00 34.66 65.34 32.58 67.00 L 32.14 67.00 C 32.30 66.90 32.62 66.71 32.78 66.61 C 31.86 66.51 30.00 66.31 29.08 66.21 C 27.38 63.29 29.79 60.10 30.30 57.13 C 31.24 51.09 36.93 47.92 40.63 43.65 M 49.55 41.88 C 50.83 43.18 52.13 44.47 53.42 45.77 C 54.34 44.43 55.20 42.65 53.65 41.39 C 52.29 40.17 50.84 41.16 49.55 41.88 M 37.34 54.37 C 35.73 55.92 35.61 58.31 34.88 60.31 C 37.15 59.60 39.86 59.46 41.49 57.51 C 44.19 54.79 46.89 52.07 49.59 49.36 C 48.38 48.16 47.17 46.96 45.97 45.76 C 43.10 48.64 40.20 51.48 37.34 54.37 Z" />
<path fill="#f9c765" opacity="1.00" d=" M 11.34 37.33 C 12.57 36.18 14.44 36.71 15.97 36.54 C 20.65 36.66 25.35 36.39 30.03 36.67 C 32.72 37.02 32.68 41.45 29.99 41.73 C 24.34 41.91 18.66 41.83 13.01 41.77 C 10.81 41.90 9.72 38.74 11.34 37.33 Z" />
</svg>
